<mxfile host="app.diagrams.net" modified="2022-01-15T16:08:46.012Z" agent="5.0 (Windows)" etag="IIKA6sAvV5mODDgEBg-F" version="16.2.7" type="github">
  <diagram id="EunWgc3X77qjf-EnTzmF" name="Page-1">
    <mxGraphModel dx="2062" dy="1140" grid="1" gridSize="10" guides="1" tooltips="1" connect="1" arrows="1" fold="1" page="1" pageScale="1" pageWidth="850" pageHeight="1100" math="0" shadow="0">
      <root>
        <mxCell id="0" />
        <mxCell id="1" parent="0" />
        <mxCell id="7jLLd1O8o6JKgsZzDNKZ-1" value="Actor" style="shape=umlActor;verticalLabelPosition=bottom;verticalAlign=top;html=1;outlineConnect=0;" vertex="1" parent="1">
          <mxGeometry y="620" width="30" height="60" as="geometry" />
        </mxCell>
        <mxCell id="7jLLd1O8o6JKgsZzDNKZ-2" value="" style="rounded=0;whiteSpace=wrap;html=1;" vertex="1" parent="1">
          <mxGeometry x="130" y="250" width="330" height="690" as="geometry" />
        </mxCell>
        <mxCell id="7jLLd1O8o6JKgsZzDNKZ-4" value="" style="endArrow=classic;startArrow=classic;html=1;rounded=0;" edge="1" parent="1" source="7jLLd1O8o6JKgsZzDNKZ-1">
          <mxGeometry width="50" height="50" relative="1" as="geometry">
            <mxPoint x="360" y="600" as="sourcePoint" />
            <mxPoint x="120" y="650" as="targetPoint" />
          </mxGeometry>
        </mxCell>
        <mxCell id="7jLLd1O8o6JKgsZzDNKZ-5" value="" style="rounded=0;whiteSpace=wrap;html=1;" vertex="1" parent="1">
          <mxGeometry x="160" y="310" width="280" height="340" as="geometry" />
        </mxCell>
        <mxCell id="7jLLd1O8o6JKgsZzDNKZ-6" value="Master Node" style="text;html=1;strokeColor=none;fillColor=none;align=center;verticalAlign=middle;whiteSpace=wrap;rounded=0;" vertex="1" parent="1">
          <mxGeometry x="255" y="270" width="60" height="30" as="geometry" />
        </mxCell>
        <mxCell id="7jLLd1O8o6JKgsZzDNKZ-7" value="Kube-api-server" style="text;html=1;strokeColor=none;fillColor=none;align=center;verticalAlign=middle;whiteSpace=wrap;rounded=0;" vertex="1" parent="1">
          <mxGeometry x="232.5" y="320" width="95" height="30" as="geometry" />
        </mxCell>
        <mxCell id="7jLLd1O8o6JKgsZzDNKZ-8" value="&amp;nbsp;Authorization" style="rounded=0;whiteSpace=wrap;html=1;" vertex="1" parent="1">
          <mxGeometry x="225" y="360" width="120" height="40" as="geometry" />
        </mxCell>
        <mxCell id="7jLLd1O8o6JKgsZzDNKZ-9" value="" style="rounded=0;whiteSpace=wrap;html=1;" vertex="1" parent="1">
          <mxGeometry x="500" y="250" width="340" height="690" as="geometry" />
        </mxCell>
        <mxCell id="7jLLd1O8o6JKgsZzDNKZ-10" value="Worker Node" style="text;html=1;strokeColor=none;fillColor=none;align=center;verticalAlign=middle;whiteSpace=wrap;rounded=0;" vertex="1" parent="1">
          <mxGeometry x="660" y="260" width="60" height="30" as="geometry" />
        </mxCell>
        <mxCell id="7jLLd1O8o6JKgsZzDNKZ-12" value="" style="rounded=1;whiteSpace=wrap;html=1;" vertex="1" parent="1">
          <mxGeometry x="180" y="440" width="240" height="180" as="geometry" />
        </mxCell>
        <mxCell id="7jLLd1O8o6JKgsZzDNKZ-13" value="MutationWebhookConfiguration" style="rounded=0;whiteSpace=wrap;html=1;" vertex="1" parent="1">
          <mxGeometry x="210" y="470" width="180" height="40" as="geometry" />
        </mxCell>
        <mxCell id="7jLLd1O8o6JKgsZzDNKZ-14" value="MutationWebhooks" style="text;html=1;strokeColor=none;fillColor=none;align=center;verticalAlign=middle;whiteSpace=wrap;rounded=0;" vertex="1" parent="1">
          <mxGeometry x="265" y="440" width="60" height="30" as="geometry" />
        </mxCell>
        <mxCell id="7jLLd1O8o6JKgsZzDNKZ-15" value="MutationWebhookConfiguration" style="rounded=0;whiteSpace=wrap;html=1;" vertex="1" parent="1">
          <mxGeometry x="210" y="550" width="180" height="40" as="geometry" />
        </mxCell>
        <mxCell id="7jLLd1O8o6JKgsZzDNKZ-16" value="" style="endArrow=classic;html=1;rounded=0;exitX=0.5;exitY=1;exitDx=0;exitDy=0;entryX=0.5;entryY=0;entryDx=0;entryDy=0;" edge="1" parent="1" source="7jLLd1O8o6JKgsZzDNKZ-13" target="7jLLd1O8o6JKgsZzDNKZ-15">
          <mxGeometry width="50" height="50" relative="1" as="geometry">
            <mxPoint x="360" y="600" as="sourcePoint" />
            <mxPoint x="410" y="550" as="targetPoint" />
          </mxGeometry>
        </mxCell>
        <mxCell id="7jLLd1O8o6JKgsZzDNKZ-20" value="" style="rounded=1;whiteSpace=wrap;html=1;" vertex="1" parent="1">
          <mxGeometry x="175" y="700" width="240" height="180" as="geometry" />
        </mxCell>
        <mxCell id="7jLLd1O8o6JKgsZzDNKZ-21" value="ValidationWebhookConfiguration" style="rounded=0;whiteSpace=wrap;html=1;" vertex="1" parent="1">
          <mxGeometry x="205" y="730" width="180" height="40" as="geometry" />
        </mxCell>
        <mxCell id="7jLLd1O8o6JKgsZzDNKZ-22" value="ValidationWebhooks" style="text;html=1;strokeColor=none;fillColor=none;align=center;verticalAlign=middle;whiteSpace=wrap;rounded=0;" vertex="1" parent="1">
          <mxGeometry x="260" y="700" width="60" height="30" as="geometry" />
        </mxCell>
        <mxCell id="7jLLd1O8o6JKgsZzDNKZ-23" value="ValidationWebhookConfiguration" style="rounded=0;whiteSpace=wrap;html=1;" vertex="1" parent="1">
          <mxGeometry x="205" y="810" width="180" height="40" as="geometry" />
        </mxCell>
        <mxCell id="7jLLd1O8o6JKgsZzDNKZ-24" value="" style="endArrow=classic;html=1;rounded=0;exitX=0.5;exitY=1;exitDx=0;exitDy=0;entryX=0.65;entryY=-0.033;entryDx=0;entryDy=0;entryPerimeter=0;" edge="1" parent="1" source="7jLLd1O8o6JKgsZzDNKZ-5" target="7jLLd1O8o6JKgsZzDNKZ-22">
          <mxGeometry width="50" height="50" relative="1" as="geometry">
            <mxPoint x="400" y="600" as="sourcePoint" />
            <mxPoint x="450" y="550" as="targetPoint" />
          </mxGeometry>
        </mxCell>
        <mxCell id="7jLLd1O8o6JKgsZzDNKZ-25" value="" style="rounded=1;whiteSpace=wrap;html=1;" vertex="1" parent="1">
          <mxGeometry x="520" y="380" width="300" height="330" as="geometry" />
        </mxCell>
        <mxCell id="7jLLd1O8o6JKgsZzDNKZ-26" value="Others project" style="text;html=1;strokeColor=none;fillColor=none;align=center;verticalAlign=middle;whiteSpace=wrap;rounded=0;" vertex="1" parent="1">
          <mxGeometry x="660" y="400" width="60" height="30" as="geometry" />
        </mxCell>
        <mxCell id="7jLLd1O8o6JKgsZzDNKZ-28" value="" style="rounded=0;whiteSpace=wrap;html=1;" vertex="1" parent="1">
          <mxGeometry x="530" y="450" width="130" height="110" as="geometry" />
        </mxCell>
        <mxCell id="7jLLd1O8o6JKgsZzDNKZ-30" value="MutationWebhook" style="ellipse;whiteSpace=wrap;html=1;" vertex="1" parent="1">
          <mxGeometry x="540" y="505" width="110" height="30" as="geometry" />
        </mxCell>
        <mxCell id="7jLLd1O8o6JKgsZzDNKZ-31" value="project" style="text;html=1;strokeColor=none;fillColor=none;align=center;verticalAlign=middle;whiteSpace=wrap;rounded=0;" vertex="1" parent="1">
          <mxGeometry x="565" y="460" width="60" height="30" as="geometry" />
        </mxCell>
        <mxCell id="7jLLd1O8o6JKgsZzDNKZ-32" value="" style="rounded=0;whiteSpace=wrap;html=1;" vertex="1" parent="1">
          <mxGeometry x="680" y="450" width="130" height="110" as="geometry" />
        </mxCell>
        <mxCell id="7jLLd1O8o6JKgsZzDNKZ-33" value="MutationWebhook" style="ellipse;whiteSpace=wrap;html=1;" vertex="1" parent="1">
          <mxGeometry x="690" y="505" width="110" height="30" as="geometry" />
        </mxCell>
        <mxCell id="7jLLd1O8o6JKgsZzDNKZ-34" value="project" style="text;html=1;strokeColor=none;fillColor=none;align=center;verticalAlign=middle;whiteSpace=wrap;rounded=0;" vertex="1" parent="1">
          <mxGeometry x="715" y="460" width="60" height="30" as="geometry" />
        </mxCell>
        <mxCell id="7jLLd1O8o6JKgsZzDNKZ-35" value="" style="endArrow=classic;startArrow=classic;html=1;rounded=0;exitX=1;exitY=0.5;exitDx=0;exitDy=0;" edge="1" parent="1" source="7jLLd1O8o6JKgsZzDNKZ-13" target="7jLLd1O8o6JKgsZzDNKZ-30">
          <mxGeometry width="50" height="50" relative="1" as="geometry">
            <mxPoint x="400" y="600" as="sourcePoint" />
            <mxPoint x="450" y="550" as="targetPoint" />
          </mxGeometry>
        </mxCell>
        <mxCell id="7jLLd1O8o6JKgsZzDNKZ-36" value="" style="endArrow=classic;startArrow=classic;html=1;rounded=0;exitX=1;exitY=0.5;exitDx=0;exitDy=0;entryX=0.409;entryY=0.967;entryDx=0;entryDy=0;entryPerimeter=0;" edge="1" parent="1" source="7jLLd1O8o6JKgsZzDNKZ-15" target="7jLLd1O8o6JKgsZzDNKZ-33">
          <mxGeometry width="50" height="50" relative="1" as="geometry">
            <mxPoint x="400" y="600" as="sourcePoint" />
            <mxPoint x="450" y="550" as="targetPoint" />
          </mxGeometry>
        </mxCell>
        <mxCell id="7jLLd1O8o6JKgsZzDNKZ-37" value="" style="rounded=0;whiteSpace=wrap;html=1;" vertex="1" parent="1">
          <mxGeometry x="530" y="770" width="280" height="152.5" as="geometry" />
        </mxCell>
        <mxCell id="7jLLd1O8o6JKgsZzDNKZ-38" value="My project" style="text;html=1;strokeColor=none;fillColor=none;align=center;verticalAlign=middle;whiteSpace=wrap;rounded=0;" vertex="1" parent="1">
          <mxGeometry x="640" y="790" width="60" height="30" as="geometry" />
        </mxCell>
        <mxCell id="7jLLd1O8o6JKgsZzDNKZ-39" value="ValidationWebhook" style="ellipse;whiteSpace=wrap;html=1;" vertex="1" parent="1">
          <mxGeometry x="615" y="830" width="120" height="80" as="geometry" />
        </mxCell>
        <mxCell id="7jLLd1O8o6JKgsZzDNKZ-40" value="" style="rounded=0;whiteSpace=wrap;html=1;" vertex="1" parent="1">
          <mxGeometry x="610" y="580" width="130" height="110" as="geometry" />
        </mxCell>
        <mxCell id="7jLLd1O8o6JKgsZzDNKZ-41" value="ValidationWebhook" style="ellipse;whiteSpace=wrap;html=1;" vertex="1" parent="1">
          <mxGeometry x="620" y="635" width="110" height="30" as="geometry" />
        </mxCell>
        <mxCell id="7jLLd1O8o6JKgsZzDNKZ-42" value="project" style="text;html=1;strokeColor=none;fillColor=none;align=center;verticalAlign=middle;whiteSpace=wrap;rounded=0;" vertex="1" parent="1">
          <mxGeometry x="645" y="590" width="60" height="30" as="geometry" />
        </mxCell>
        <mxCell id="7jLLd1O8o6JKgsZzDNKZ-43" value="" style="endArrow=classic;html=1;rounded=0;exitX=0.5;exitY=1;exitDx=0;exitDy=0;entryX=0.5;entryY=0;entryDx=0;entryDy=0;" edge="1" parent="1" source="7jLLd1O8o6JKgsZzDNKZ-21" target="7jLLd1O8o6JKgsZzDNKZ-23">
          <mxGeometry width="50" height="50" relative="1" as="geometry">
            <mxPoint x="380" y="600" as="sourcePoint" />
            <mxPoint x="430" y="550" as="targetPoint" />
          </mxGeometry>
        </mxCell>
        <mxCell id="7jLLd1O8o6JKgsZzDNKZ-44" value="" style="endArrow=classic;startArrow=classic;html=1;rounded=0;exitX=1;exitY=0.5;exitDx=0;exitDy=0;entryX=0;entryY=0.5;entryDx=0;entryDy=0;" edge="1" parent="1" source="7jLLd1O8o6JKgsZzDNKZ-21" target="7jLLd1O8o6JKgsZzDNKZ-41">
          <mxGeometry width="50" height="50" relative="1" as="geometry">
            <mxPoint x="380" y="600" as="sourcePoint" />
            <mxPoint x="430" y="550" as="targetPoint" />
          </mxGeometry>
        </mxCell>
        <mxCell id="7jLLd1O8o6JKgsZzDNKZ-45" value="" style="endArrow=classic;startArrow=classic;html=1;rounded=0;exitX=1;exitY=0.5;exitDx=0;exitDy=0;entryX=0;entryY=0.5;entryDx=0;entryDy=0;" edge="1" parent="1" source="7jLLd1O8o6JKgsZzDNKZ-23" target="7jLLd1O8o6JKgsZzDNKZ-39">
          <mxGeometry width="50" height="50" relative="1" as="geometry">
            <mxPoint x="380" y="600" as="sourcePoint" />
            <mxPoint x="430" y="550" as="targetPoint" />
          </mxGeometry>
        </mxCell>
        <mxCell id="7jLLd1O8o6JKgsZzDNKZ-46" value="&lt;div&gt;create/update&lt;/div&gt;&lt;div&gt;config&lt;br&gt; &lt;/div&gt;" style="text;html=1;strokeColor=none;fillColor=none;align=center;verticalAlign=middle;whiteSpace=wrap;rounded=0;" vertex="1" parent="1">
          <mxGeometry x="50" y="620" width="60" height="30" as="geometry" />
        </mxCell>
      </root>
    </mxGraphModel>
  </diagram>
</mxfile>
